# xmcd
#
# Track frame offsets:
#	150
#	14920
#	31090
#	50490
#	65500
#	81045
#	96785
#	113200
#	128800
#	150210
#	164215
#	180660
#	193345
#	208905
#	224150
#
# Disc length: 3233 seconds
#
# Revision: 1
# Processed by: cddbd v1.5.1PL2 Copyright (c) Steve Scherf et al.
# Submitted via: audiograbber 1.83.01
#
DISCID=df0c9f0f
DTITLE=Music Maestro Top Country Hits 90's Vol 6 - Mm6029
DYEAR=1900
DGENRE=Karaoke
TTITLE0=George Strait - Easy Come Easy Go
TTITLE1=Vince Gill - One More Last Chance
TTITLE2=Pam Tillis - Do You Know Where Your Man Is
TTITLE3=Lee Roy Parnell - Tender Moment
TTITLE4=Alabama - Hometown Honeymoon
TTITLE5=Suzy Bogguss - Just Like The Weather
TTITLE6=Toby Keith - Should've Been A Cowboy
TTITLE7=Gibson Miller Band - Texas Tatoo
TTITLE8=Reba Mcentire And Linda Davis - Does He Love You
TTITLE9=Tracy Lawrence - Can't Break It To My Heart
TTITLE10=Alabama - Reckless
TTITLE11=Martina Mcbride - My Baby Loves Me
TTITLE12=Confederate Railroad - Trashy Women
TTITLE13=Garth Brooks - Ain't Goin' Down Till The Sun Comes
TTITLE14=Wynonna Judd - Only Love
EXTD=
EXTT0=
EXTT1=
EXTT2=
EXTT3=
EXTT4=
EXTT5=
EXTT6=
EXTT7=
EXTT8=
EXTT9=
EXTT10=
EXTT11=
EXTT12=
EXTT13=
EXTT14=
PLAYORDER=
